<?xml version="1.0" encoding="UTF-8" standalone="no"?>
<svg
   xmlns:dc="http://purl.org/dc/elements/1.1/"
   xmlns:cc="http://creativecommons.org/ns#"
   xmlns:rdf="http://www.w3.org/1999/02/22-rdf-syntax-ns#"
   xmlns:svg="http://www.w3.org/2000/svg"
   xmlns="http://www.w3.org/2000/svg"
   viewBox="0 0 320 280"
   height="280"
   width="320"
   xml:space="preserve"
   id="svg2"
   version="1.1"><metadata
     id="metadata8"><rdf:RDF><cc:Work
         rdf:about=""><dc:format>image/svg+xml</dc:format><dc:type
           rdf:resource="http://purl.org/dc/dcmitype/StillImage" /></cc:Work></rdf:RDF></metadata><defs
     id="defs6" /><g
     transform="matrix(1.3333333,0,0,-1.3333333,0,280)"
     id="g10"><g
       transform="scale(0.1)"
       id="g12"><path
         id="path14"
         style="fill:#5c4dac;fill-opacity:1;fill-rule:nonzero;stroke:none"
         d="M 42.3789,1097.65 595.391,891.238 809.449,202.879 c 13.672,-44.098 67.621,-60.391 103.403,-31.129 l 308.238,251.289 c 32.31,26.332 78.32,27.652 112.11,3.121 L 1889.18,22.4883 c 38.28,-27.80861 92.5,-6.8399 102.11,39.4101 l 407.3,1959.1516 c 10.47,50.5 -39.18,92.69 -87.3,74.06 L 41.7617,1219.6 c -56.0234,-21.6 -55.5508,-100.9 0.6172,-121.95 z m 732.5821,-96.53 1080.779,665.67 c 19.42,11.91 39.42,-14.34 22.74,-29.81 l -892,-829.14 c -31.32,-29.18 -51.558,-68.238 -57.3,-110.621 l -30.352,-225.16 c -4.027,-30.079 -46.25,-33.047 -54.566,-3.981 l -116.84,410.621 c -13.402,46.84 6.098,96.84 47.539,122.421 z" /></g></g></svg>